{"asset":{"version":"2.0","generator":"babylon.js glTF exporter for Autodesk MAYA 2023.2 v20220923.2"},"scene":0,"scenes":[{"nodes":[0]}],"nodes":[{"mesh":0,"name":"block_Green_base"}],"meshes":[{"primitives":[{"attributes":{"POSITION":1,"TANGENT":2,"NORMAL":3,"TEXCOORD_0":4},"indices":0,"material":0}],"name":"block_Green_base"}],"accessors":[{"bufferView":0,"componentType":5123,"count":1470,"type":"SCALAR","name":"accessorIndices"},{"bufferView":1,"componentType":5126,"count":446,"max":[0.189798713,0.248662427,0.189617157],"min":[-0.189798713,-0.248662427,-0.189617157],"type":"VEC3","name":"accessorPositions"},{"bufferView":2,"componentType":5126,"count":446,"type":"VEC4","name":"accessorTangents"},{"bufferView":1,"byteOffset":5352,"componentType":5126,"count":446,"type":"VEC3","name":"accessorNormals"},{"bufferView":3,"componentType":5126,"count":446,"type":"VEC2","name":"accessorUVs"}],"bufferViews":[{"buffer":0,"byteLength":2940,"name":"bufferViewScalar"},{"buffer":0,"byteOffset":2940,"byteLength":10704,"byteStride":12,"name":"bufferViewFloatVec3"},{"buffer":0,"byteOffset":13644,"byteLength":7136,"byteStride":16,"name":"bufferViewFloatVec4"},{"buffer":0,"byteOffset":20780,"byteLength":3568,"byteStride":8,"name":"bufferViewFloatVec2"}],"buffers":[{"uri":"block_Green_base.bin","byteLength":24348}],"materials":[{"pbrMetallicRoughness":{"baseColorTexture":{"index":2},"metallicRoughnessTexture":{"index":3}},"normalTexture":{"index":0},"emissiveTexture":{"index":1},"emissiveFactor":[1.0,1.0,1.0],"name":"block_mtl"}],"textures":[{"sampler":0,"source":0,"name":"block_mtl_Normal.png"},{"sampler":0,"source":1,"name":"block_mtl_Emissive.png"},{"sampler":0,"source":2,"name":"block_mtl_BaseColor.png"},{"sampler":0,"source":3,"name":"block_mtl_Roughness_1block_mtl_Metallic_1.jpg"}],"images":[{"uri":"block_mtl_Normal.png"},{"uri":"block_mtl_Emissive.png"},{"uri":"block_mtl_BaseColor.png"},{"uri":"block_mtl_Roughness_1block_mtl_Metallic_1.jpg"}],"samplers":[{"magFilter":9729,"minFilter":9987}]}